<svg xmlns="http://www.w3.org/2000/svg" xmlns:xlink="http://www.w3.org/1999/xlink" viewBox="1684 3961 27 27">
  <defs>
    <style>
      .cls-1, .cls-3 {
        fill: #fff;
      }

      .cls-1 {
        stroke: #707070;
      }

      .cls-2 {
        clip-path: url(#clip-path);
      }
    </style>
    <clipPath id="clip-path">
      <rect id="Rectangle_937" data-name="Rectangle 937" class="cls-1" width="27" height="27" transform="translate(674 943)"/>
    </clipPath>
  </defs>
  <g id="Mask_Group_16" data-name="Mask Group 16" class="cls-2" transform="translate(1010 3018)">
    <g id="grid" transform="translate(674 943)">
      <g id="Group_2298" data-name="Group 2298">
        <g id="Group_2297" data-name="Group 2297">
          <path id="Path_840" data-name="Path 840" class="cls-3" d="M9.364,0H2.469A2.472,2.472,0,0,0,0,2.469V9.364a2.472,2.472,0,0,0,2.469,2.469H9.364a2.472,2.472,0,0,0,2.469-2.469V2.469A2.472,2.472,0,0,0,9.364,0Zm.288,9.364a.289.289,0,0,1-.288.288H2.469a.289.289,0,0,1-.288-.288V2.469a.289.289,0,0,1,.288-.288H9.364a.289.289,0,0,1,.288.288Z"/>
        </g>
      </g>
      <g id="Group_2300" data-name="Group 2300">
        <g id="Group_2299" data-name="Group 2299">
          <path id="Path_841" data-name="Path 841" class="cls-3" d="M24.531,0H17.636a2.472,2.472,0,0,0-2.469,2.469V9.364a2.472,2.472,0,0,0,2.469,2.469h6.894A2.472,2.472,0,0,0,27,9.364V2.469A2.472,2.472,0,0,0,24.531,0Zm.288,9.364a.289.289,0,0,1-.288.288H17.636a.289.289,0,0,1-.288-.288V2.469a.289.289,0,0,1,.288-.288h6.894a.288.288,0,0,1,.288.288Z"/>
        </g>
      </g>
      <g id="Group_2302" data-name="Group 2302">
        <g id="Group_2301" data-name="Group 2301">
          <path id="Path_842" data-name="Path 842" class="cls-3" d="M24.531,15.167H17.636a2.472,2.472,0,0,0-2.469,2.469v6.894A2.472,2.472,0,0,0,17.636,27h6.894A2.472,2.472,0,0,0,27,24.531V17.636A2.472,2.472,0,0,0,24.531,15.167Zm.288,9.364a.288.288,0,0,1-.288.288H17.636a.288.288,0,0,1-.288-.288V17.636a.289.289,0,0,1,.288-.288h6.894a.289.289,0,0,1,.288.288Z"/>
        </g>
      </g>
      <g id="Group_2304" data-name="Group 2304">
        <g id="Group_2303" data-name="Group 2303">
          <path id="Path_843" data-name="Path 843" class="cls-3" d="M9.364,15.167H2.469A2.472,2.472,0,0,0,0,17.636v6.894A2.472,2.472,0,0,0,2.469,27H9.364a2.472,2.472,0,0,0,2.469-2.469V17.636A2.472,2.472,0,0,0,9.364,15.167Zm.288,9.364a.289.289,0,0,1-.288.288H2.469a.288.288,0,0,1-.288-.288V17.636a.288.288,0,0,1,.288-.288H9.364a.289.289,0,0,1,.288.288Z"/>
        </g>
      </g>
    </g>
  </g>
</svg>
